<?xml version="1.0" encoding="UTF-8" standalone="no"?>
<!DOCTYPE svg PUBLIC "-//W3C//DTD SVG 1.1//EN" "http://www.w3.org/Graphics/SVG/1.1/DTD/svg11.dtd">
<svg width="100%" height="100%" viewBox="0 0 128 128" version="1.1" xmlns="http://www.w3.org/2000/svg" xmlns:xlink="http://www.w3.org/1999/xlink" xml:space="preserve" xmlns:serif="http://www.serif.com/" style="fill-rule:evenodd;clip-rule:evenodd;stroke-linecap:round;stroke-linejoin:round;stroke-miterlimit:1.5;">
    <circle cx="64" cy="64" r="64" style="fill:white;"/>
    <g id="common14">
        <g id="feed">
            <path d="M76,38L76,18L32,18L32,108L96,108L96,38L76,38Z" style="fill:white;stroke:rgb(64,64,64);stroke-width:5px;"/>
            <path d="M76,18L96,38L76,38L76,18Z" style="fill:rgb(64,64,64);stroke:rgb(64,64,64);stroke-width:5px;"/>
            <g>
                <path d="M45.766,64.164L45.766,63.084L58.078,63.084L58.078,64.164L45.766,64.164ZM45.766,66.54L45.766,65.46L58.078,65.46L58.078,66.54L45.766,66.54ZM45.766,68.916L45.766,67.836L58.078,67.836L58.078,68.916L45.766,68.916Z" style="fill:rgb(72,191,64);fill-rule:nonzero;stroke:rgb(72,191,64);stroke-width:0.5px;"/>
                <path d="M45.766,52.608L45.766,51.528L60.13,51.528L60.13,52.608L45.766,52.608ZM45.766,54.984L45.766,53.904L60.13,53.904L60.13,54.984L45.766,54.984ZM45.766,57.36L45.766,56.28L60.13,56.28L60.13,57.36L45.766,57.36Z" style="fill:rgb(64,111,191);fill-rule:nonzero;stroke:rgb(64,111,191);stroke-width:0.5px;"/>
                <path d="M43.39,80.472L43.39,51.528L44.47,51.528L44.47,80.472L43.39,80.472ZM38.638,80.472L38.638,51.528L39.718,51.528L39.718,80.472L38.638,80.472ZM41.014,80.472L41.014,51.528L42.094,51.528L42.094,80.472L41.014,80.472Z" style="fill:rgb(191,77,64);fill-rule:nonzero;stroke:rgb(191,77,64);stroke-width:0.5px;"/>
                <path d="M66.826,81.444C66.082,80.028 65.536,78.618 65.188,77.214C64.84,75.81 64.666,74.472 64.666,73.2C64.666,71.928 64.84,70.59 65.188,69.186C65.536,67.782 66.082,66.372 66.826,64.956L67.978,64.956C67.234,66.3 66.676,67.686 66.304,69.114C65.932,70.542 65.746,71.904 65.746,73.2C65.746,74.496 65.932,75.858 66.304,77.286C66.676,78.714 67.234,80.1 67.978,81.444L66.826,81.444ZM64.45,81.444C63.706,80.028 63.16,78.618 62.812,77.214C62.464,75.81 62.29,74.472 62.29,73.2C62.29,71.928 62.464,70.59 62.812,69.186C63.16,67.782 63.706,66.372 64.45,64.956L65.602,64.956C64.858,66.3 64.3,67.686 63.928,69.114C63.556,70.542 63.37,71.904 63.37,73.2C63.37,74.496 63.556,75.858 63.928,77.286C64.3,78.714 64.858,80.1 65.602,81.444L64.45,81.444Z" style="fill:rgb(64,111,191);fill-rule:nonzero;stroke:rgb(64,111,191);stroke-width:0.5px;"/>
                <path d="M72.586,80.472L72.586,66L78.238,66C79.414,66.024 80.422,66.426 81.262,67.206C82.102,67.986 82.522,69.06 82.522,70.428C82.522,71.82 82.102,72.906 81.262,73.686C80.422,74.466 79.414,74.856 78.238,74.856L73.666,74.856L73.666,80.472L72.586,80.472ZM70.21,80.472L70.21,66L71.29,66L71.29,80.472L70.21,80.472ZM78.166,67.08L73.666,67.08L73.666,68.376L78.238,68.376C78.814,68.4 79.276,68.598 79.624,68.97C79.972,69.342 80.146,69.828 80.146,70.428C80.146,71.028 79.966,71.52 79.606,71.904C79.246,72.288 78.79,72.48 78.238,72.48L73.666,72.48L73.666,73.776L78.166,73.776C79.078,73.776 79.852,73.494 80.488,72.93C81.124,72.366 81.442,71.532 81.442,70.428C81.442,69.324 81.124,68.49 80.488,67.926C79.852,67.362 79.078,67.08 78.166,67.08ZM78.166,69.456L73.666,69.456L73.666,71.4L78.166,71.4C78.43,71.4 78.646,71.322 78.814,71.166C78.982,71.01 79.066,70.764 79.066,70.428C79.066,70.092 78.982,69.846 78.814,69.69C78.646,69.534 78.43,69.456 78.166,69.456Z" style="fill:rgb(72,191,64);fill-rule:nonzero;stroke:rgb(72,191,64);stroke-width:0.5px;"/>
                <path d="M85.546,64.956C86.29,66.372 86.836,67.782 87.184,69.186C87.532,70.59 87.706,71.928 87.706,73.2C87.706,74.472 87.532,75.81 87.184,77.214C86.836,78.618 86.29,80.028 85.546,81.444L84.394,81.444C85.138,80.1 85.696,78.714 86.068,77.286C86.44,75.858 86.626,74.496 86.626,73.2C86.626,71.904 86.44,70.542 86.068,69.114C85.696,67.686 85.138,66.3 84.394,64.956L85.546,64.956ZM87.922,64.956C88.666,66.372 89.212,67.782 89.56,69.186C89.908,70.59 90.082,71.928 90.082,73.2C90.082,74.472 89.908,75.81 89.56,77.214C89.212,78.618 88.666,80.028 87.922,81.444L86.77,81.444C87.514,80.1 88.072,78.714 88.444,77.286C88.816,75.858 89.002,74.496 89.002,73.2C89.002,71.904 88.816,70.542 88.444,69.114C88.072,67.686 87.514,66.3 86.77,64.956L87.922,64.956Z" style="fill:rgb(191,77,64);fill-rule:nonzero;stroke:rgb(191,77,64);stroke-width:0.5px;"/>
            </g>
        </g>
    </g>
</svg>
